HIERARCHY
ROOT Hips
{
 OFFSET 0.000000 0.000000 0.000000
 CHANNELS 6 Xposition Yposition Zposition Yrotation Xrotation Zrotation
 JOINT Chest
 {
  OFFSET 0.000000 9.585900 0.002600
  CHANNELS 3 Yrotation Xrotation Zrotation
  JOINT Chest2
  {
   OFFSET 0.000000 9.601200 -0.005300
   CHANNELS 3 Yrotation Xrotation Zrotation
   JOINT Chest3
   {
    OFFSET 0.000000 9.561800 0.000000
    CHANNELS 3 Yrotation Xrotation Zrotation
    JOINT Chest4
    {
     OFFSET 0.000000 9.552100 0.000000
     CHANNELS 3 Yrotation Xrotation Zrotation
     JOINT Neck
     {
      OFFSET 0.000000 14.453000 0.000000
      CHANNELS 3 Yrotation Xrotation Zrotation
      JOINT Head
      {
       OFFSET 0.000000 8.936500 -0.011300
       CHANNELS 3 Yrotation Xrotation Zrotation
       End Site
       {
        OFFSET 0.000000 17.073600 -0.006000
       }
      }
     }
     JOINT RightCollar
     {
      OFFSET -2.921100 9.558500 0.000000
      CHANNELS 3 Yrotation Xrotation Zrotation
      JOINT RightShoulder
      {
       OFFSET -13.519700 0.000000 0.000000
       CHANNELS 3 Yrotation Xrotation Zrotation
       JOINT RightElbow
       {
        OFFSET 0.000000 -29.696600 0.000000
        CHANNELS 3 Yrotation Xrotation Zrotation
        JOINT RightWrist
        {
         OFFSET 0.000000 -24.004700 0.000000
         CHANNELS 3 Yrotation Xrotation Zrotation
         End Site
         {
          OFFSET 0.000000 -17.728500 0.000000
         }
        }
       }
      }
     }
     JOINT LeftCollar
     {
      OFFSET 2.921100 9.558500 0.000000
      CHANNELS 3 Yrotation Xrotation Zrotation
      JOINT LeftShoulder
      {
       OFFSET 13.519700 0.000000 0.000000
       CHANNELS 3 Yrotation Xrotation Zrotation
       JOINT LeftElbow
       {
        OFFSET 0.000000 -29.696600 0.000000
        CHANNELS 3 Yrotation Xrotation Zrotation
        JOINT LeftWrist
        {
         OFFSET 0.000000 -24.004700 0.000000
         CHANNELS 3 Yrotation Xrotation Zrotation
         End Site
         {
          OFFSET 0.000000 -17.728500 0.000000
         }
        }
       }
      }
     }
    }
   }
  }
 }
 JOINT RightHip
 {
  OFFSET -7.771700 -0.012900 -0.001300
  CHANNELS 3 Yrotation Xrotation Zrotation
  JOINT RightKnee
  {
   OFFSET 0.000000 -40.869800 0.001200
   CHANNELS 3 Yrotation Xrotation Zrotation
   JOINT RightAnkle
   {
    OFFSET 0.000000 -39.717900 0.002100
    CHANNELS 3 Yrotation Xrotation Zrotation
    JOINT RightToe
    {
     OFFSET 0.000000 -4.965400 11.033500
     CHANNELS 3 Yrotation Xrotation Zrotation
     End Site
     {
      OFFSET 0.000000 -1.423100 5.872300
     }
    }
   }
  }
 }
 JOINT LeftHip
 {
  OFFSET 7.771700 -0.012900 -0.001300
  CHANNELS 3 Yrotation Xrotation Zrotation
  JOINT LeftKnee
  {
   OFFSET 0.000000 -40.869800 0.001200
   CHANNELS 3 Yrotation Xrotation Zrotation
   JOINT LeftAnkle
   {
    OFFSET 0.000000 -39.717900 0.002100
    CHANNELS 3 Yrotation Xrotation Zrotation
    JOINT LeftToe
    {
     OFFSET 0.000000 -4.965400 11.033500
     CHANNELS 3 Yrotation Xrotation Zrotation
     End Site
     {
      OFFSET 0.000000 -1.423100 5.872300
     }
    }
   }
  }
 }
}
MOTION
Frames: 11
Frame Time: 0.008333
-233.923993 57.664314 -80.208142 160.946273 -8.395146 0.464196 2.593076 7.450680 0.981869 0.110047 0.352828 0.004683 0.189329 0.621118 0.011745 2.226542 7.086406 0.224251 0.876056 17.863881 -1.288654 2.036594 -2.582329 -2.667736 2.490806 8.095082 1.176710 -0.821073 -7.273550 -8.765066 -68.016661 -83.437342 94.584382 -1.614298 6.982744 -27.389416 -4.658792 8.228108 -2.567229 13.474208 -3.320398 1.415826 134.982160 -85.243327 -162.379100 -5.059676 10.836414 8.955206 -16.694297 -63.372142 7.569609 -36.673212 72.450298 -37.809775 -4.608321 -8.425674 -1.118087 -0.178274 0.834970 -0.079808 0.261026 -66.150843 15.333070 43.553075 65.466570 37.201874 -17.452370 -10.339656 3.681275 -0.282305 -0.886933 -0.159829
-233.927779 57.664636 -80.208491 160.960444 -8.386661 0.463181 2.579901 7.440382 0.979266 0.110999 0.351644 0.002844 0.192891 0.616681 0.008466 2.232417 7.083172 0.223692 0.869066 17.872182 -1.284309 2.034978 -2.576419 -2.667131 2.483467 8.100505 1.173690 -0.819431 -7.280676 -8.758485 -68.025444 -83.438334 94.586082 -1.619036 6.980907 -27.398207 -4.653421 8.228842 -2.567464 13.471191 -3.316185 1.420083 135.024567 -85.242517 -162.423107 -5.056390 10.826486 8.967080 -16.697023 -63.381764 7.562165 -36.680849 72.449872 -37.817445 -4.608092 -8.423318 -1.110561 -0.189728 0.833612 -0.082778 0.246755 -66.159979 15.331955 43.540090 65.482321 37.184721 -17.427047 -10.405100 3.697171 -0.284279 -0.865301 -0.159837
-233.932487 57.664756 -80.207263 160.970288 -8.368369 0.462928 2.570059 7.420722 0.976632 0.111877 0.351854 0.001640 0.194065 0.616139 0.006855 2.238993 7.081552 0.220192 0.871453 17.874183 -1.289527 2.026564 -2.574643 -2.652458 2.474675 8.101541 1.170262 -0.814471 -7.286369 -8.752530 -68.049259 -83.437966 94.602282 -1.623381 6.982462 -27.400121 -4.655075 8.227422 -2.564845 13.479985 -3.316823 1.415410 135.076249 -85.250086 -162.486323 -5.054911 10.821125 8.971878 -16.709539 -63.399606 7.567905 -36.665622 72.449918 -37.810843 -4.595017 -8.420339 -1.099880 -0.200598 0.834228 -0.087887 0.231479 -66.179264 15.333244 43.552488 65.487415 37.194449 -17.428785 -10.469551 3.710227 -0.282381 -0.847916 -0.160425
-233.935929 57.665310 -80.208465 160.967603 -8.367029 0.460432 2.578232 7.416765 0.968473 0.108409 0.353321 0.010344 0.195557 0.615978 0.003839 2.241073 7.080877 0.221857 0.873759 17.875851 -1.293016 2.023074 -2.570667 -2.651089 2.474220 8.100927 1.163151 -0.812418 -7.293174 -8.746799 -68.031333 -83.431241 94.575923 -1.622456 6.979610 -27.402620 -4.654676 8.224004 -2.567754 13.490641 -3.316778 1.410308 135.142550 -85.242810 -162.554764 -5.054122 10.815573 8.974017 -16.694664 -63.399749 7.557325 -36.662807 72.448677 -37.802184 -4.590269 -8.418850 -1.098339 -0.205706 0.834718 -0.088375 0.224204 -66.186980 15.337861 43.581797 65.506427 37.226849 -17.417360 -10.545404 3.731215 -0.290579 -0.812382 -0.173868
-233.940113 57.665905 -80.209845 160.963942 -8.365494 0.461440 2.584840 7.414442 0.963686 0.108233 0.353719 0.008123 0.197361 0.615472 0.003946 2.242000 7.079929 0.223623 0.876492 17.878499 -1.294408 2.023602 -2.567016 -2.650084 2.471259 8.088923 1.154932 -0.809189 -7.287245 -8.738437 -68.028020 -83.425699 94.563703 -1.611534 6.966494 -27.408891 -4.656394 8.220783 -2.570963 13.504297 -3.318937 1.404969 135.296211 -85.219799 -162.697378 -5.062583 10.845632 8.946246 -16.660516 -63.400917 7.536192 -36.640043 72.448482 -37.781483 -4.596719 -8.414298 -1.086534 -0.215233 0.836005 -0.089557 0.225924 -66.191304 15.339117 43.596141 65.526956 37.241124 -17.424204 -10.629200 3.754373 -0.276274 -0.768661 -0.184082
-233.943427 57.666740 -80.212412 160.961732 -8.372407 0.459017 2.592814 7.420298 0.962464 0.111404 0.352578 0.004089 0.194768 0.616471 0.007639 2.251717 7.079473 0.217937 0.871627 17.880091 -1.288612 2.022677 -2.562579 -2.645726 2.462200 8.082695 1.160820 -0.813626 -7.281590 -8.731204 -68.104097 -83.434180 94.629462 -1.615726 6.970157 -27.404429 -4.669573 8.218836 -2.563896 13.513236 -3.319889 1.403940 135.312123 -85.210352 -162.709953 -5.069643 10.856316 8.938836 -16.653044 -63.393266 7.533089 -36.637904 72.448600 -37.780896 -4.600883 -8.410101 -1.084202 -0.204461 0.832883 -0.088399 0.215773 -66.185750 15.351560 43.583187 65.555444 37.233262 -17.426319 -10.717772 3.773202 -0.290087 -0.814398 -0.176457
-233.946615 57.667526 -80.214574 160.963886 -8.377154 0.454395 2.596043 7.423707 0.963177 0.111505 0.352469 0.003977 0.195218 0.614593 0.006085 2.253624 7.077552 0.214593 0.872162 17.884016 -1.284955 2.023595 -2.556129 -2.644002 2.459832 8.082493 1.164128 -0.816866 -7.286183 -8.729142 -68.167553 -83.441499 94.674922 -1.628431 6.982820 -27.387695 -4.673236 8.218513 -2.559501 13.522914 -3.319845 1.403147 135.326151 -85.202784 -162.720952 -5.070630 10.854878 8.945327 -16.655304 -63.387613 7.535335 -36.636641 72.449661 -37.780616 -4.605679 -8.405324 -1.081389 -0.214211 0.830155 -0.091041 0.189882 -66.181716 15.375012 43.577457 65.581956 37.222904 -17.410240 -10.802254 3.798609 -0.285944 -0.807605 -0.180027
-233.949823 57.669082 -80.222220 160.943447 -8.413016 0.464304 2.616801 7.459447 0.956463 0.111538 0.352431 0.003930 0.195535 0.612829 0.004668 2.256597 7.072011 0.204891 0.873501 17.888453 -1.279697 2.025257 -2.550173 -2.643196 2.460047 8.086264 1.167107 -0.819124 -7.287976 -8.725829 -68.179487 -83.442035 94.682467 -1.634484 6.980575 -27.389134 -4.673069 8.220814 -2.554392 13.536051 -3.327258 1.389173 135.402218 -85.209949 -162.795420 -5.054163 10.833772 8.952144 -16.589777 -63.353691 7.488229 -36.635232 72.451762 -37.780988 -4.611521 -8.409545 -1.074635 -0.215768 0.834122 -0.091934 0.207034 -66.147099 15.375859 43.564665 65.636312 37.203443 -17.363263 -10.895942 3.832998 -0.298565 -0.811029 -0.187928
-233.953747 57.669662 -80.223709 160.941968 -8.412665 0.464236 2.619562 7.453074 0.952099 0.111443 0.352167 0.003744 0.194952 0.615753 0.007042 2.259634 7.067970 0.198371 0.874609 17.890982 -1.279750 2.029311 -2.542539 -2.638260 2.461915 8.090888 1.165583 -0.825471 -7.292838 -8.729648 -68.176486 -83.436153 94.678041 -1.624572 6.977683 -27.395182 -4.671128 8.224559 -2.552419 13.536412 -3.329424 1.389611 135.398360 -85.200311 -162.777470 -5.045514 10.832032 8.951869 -16.572727 -63.351041 7.476952 -36.635612 72.443724 -37.775956 -4.620325 -8.410352 -1.074462 -0.207230 0.839261 -0.090239 0.198851 -66.150126 15.384596 43.564112 65.656909 37.202896 -17.357689 -10.956217 3.844034 -0.293903 -0.825704 -0.179746
-233.957822 57.670117 -80.224883 160.946830 -8.410653 0.464328 2.623528 7.438820 0.939270 0.111546 0.352008 0.003573 0.195128 0.615322 0.006677 2.256022 7.073717 0.206097 0.875245 17.892195 -1.280025 2.031644 -2.533629 -2.635277 2.464800 8.095338 1.161077 -0.831659 -7.291996 -8.719278 -68.176072 -83.439403 94.675215 -1.619137 6.976354 -27.404520 -4.670879 8.229317 -2.549241 13.554665 -3.343926 1.366986 135.428965 -85.213678 -162.816515 -5.051799 10.839590 8.942086 -16.564813 -63.352529 7.471595 -36.649486 72.435918 -37.790120 -4.628318 -8.404578 -1.072051 -0.199427 0.838023 -0.087172 0.200774 -66.154093 15.377607 43.557413 65.670757 37.201516 -17.358320 -11.014866 3.853193 -0.255254 -0.835662 -0.166161
-233.958541 57.670199 -80.223328 160.958643 -8.400139 0.439777 2.620389 7.423158 0.957816 0.108909 0.353184 0.005706 0.197939 0.613353 0.004318 2.252301 7.075741 0.209213 0.877151 17.889990 -1.282790 2.028743 -2.530281 -2.640131 2.468028 8.095742 1.150548 -0.831843 -7.295667 -8.715227 -68.151594 -83.436928 94.644633 -1.616823 6.975888 -27.410206 -4.667351 8.229083 -2.550191 13.556320 -3.345138 1.364158 135.438534 -85.215243 -162.828126 -5.046408 10.828352 8.945504 -16.613355 -63.357138 7.522860 -36.632077 72.438143 -37.779400 -4.629722 -8.388015 -1.060074 -0.208929 0.826998 -0.092091 0.144261 -66.163835 15.424648 43.559604 65.671415 37.204467 -17.326254 -11.100536 3.874222 -0.254266 -0.799135 -0.173641
